*******************************************************************************
              Fangoria Presents Sin Reaper (2012) - RadioResearch
*******************************************************************************

-------------------------------------------------------------------------------
                              General Information
-------------------------------------------------------------------------------
Type.................: Movie



Video Format.........: AVI
Video Bitrate........: 1627
Resolution...........: 640 x 358
Color................: 8 bit
FPS..................: 20.0000
Source...............: WEB 16:9
Original Format......: NTSC
Genre................: Horror
IMDb Rating..........: 3.0
Movie Information....: http://www.imdb.com/title/tt2188885/

-------------------------------------------------------------------------------
                               Post Information
-------------------------------------------------------------------------------
Posted by............: RadioResearch
Posted on............: 5/19/2013

-------------------------------------------------------------------------------
                                 Release Notes
-------------------------------------------------------------------------------
SEEDBOX SUPPORTED!!

Young Samantha Walker has been tortured by nightmarish visions for years. With 
the help of Dr. Hoffman, she faces her unknown past by taking his advice and 
traveling to Germany. Having been adopted in the U.S. as a baby she decides to 
seek out the true roots of her ancestral past. Her journey leads to 
"Wallenhausen", a former German convent. Samantha's break-in to the convent at 
night becomes a fight for life and death as a masked monk starts the merciless 
killings of her companions one after another. Finally the secret of her past 
reveals itself and she has to face - the Sin Reaper.

Remember where you got it first! Enjoy!

RadioResearch

General
Complete name                            : G:Fangoria Presents Sin Reaper 
(2012) RadioResearchFangoria Presents Sin Reaper (HD).avi
Format                                   : AVI
Format/Info                              : Audio Video Interleave
File size                                : 1.03 GiB
Duration                                 : 1h 31mn
Overall bit rate                         : 1 627 Kbps

Video
ID                                       : 0
Format                                   : mp43
Codec ID                                 : mp43
Duration                                 : 1h 31mn
Bit rate                                 : 1 487 Kbps
Width                                    : 640 pixels
Height                                   : 358 pixels
Display aspect ratio                     : 16:9
Frame rate                               : 25.000 fps
Bits/(Pixel*Frame)                       : 0.260
Stream size                              : 968 MiB (91%)

Audio
ID                                       : 1
Format                                   : MPEG Audio
Format version                           : Version 1
Format profile                           : Layer 3
Mode                                     : Joint stereo
Mode extension                           : MS Stereo
Codec ID                                 : 55
Codec ID/Hint                            : MP3
Duration                                 : 1h 31mn
Bit rate mode                            : Constant
Bit rate                                 : 128 Kbps
Channel(s)                               : 2 channels
Sampling rate                            : 44.1 KHz
Compression mode                         : Lossy
Stream size                              : 83.3 MiB (8%)
Alignment                                : Aligned on interleaves
Interleave, duration                     : 26 ms (0.65 video frame)
Interleave, preload duration             : 470 ms
Writing library                          : LAME3.98.2

AVI FILE MD5 HAS  5bfdacce8a234cc2c1064bf6915a2450



-------------------------------------------------------------------------------
Generated with Cool NFO Creator - http://fly.to/coolbeans
-------------------------------------------------------------------------------
